<mxfile host="app.diagrams.net" modified="2022-07-14T16:31:42.148Z" agent="5.0 (Windows NT 10.0; Win64; x64) AppleWebKit/537.36 (KHTML, like Gecko) Chrome/103.0.0.0 Safari/537.36" etag="21LGllFw_LetJTWSb43d" version="20.1.1" type="github">
  <diagram id="C5RBs43oDa-KdzZeNtuy" name="Page-1">
    <mxGraphModel dx="930" dy="557" grid="1" gridSize="10" guides="1" tooltips="1" connect="1" arrows="1" fold="1" page="1" pageScale="1" pageWidth="827" pageHeight="1169" math="0" shadow="0">
      <root>
        <mxCell id="WIyWlLk6GJQsqaUBKTNV-0" />
        <mxCell id="WIyWlLk6GJQsqaUBKTNV-1" parent="WIyWlLk6GJQsqaUBKTNV-0" />
        <mxCell id="WIyWlLk6GJQsqaUBKTNV-2" value="" style="rounded=0;html=1;jettySize=auto;orthogonalLoop=1;fontSize=11;endArrow=block;endFill=0;endSize=8;strokeWidth=1;shadow=0;labelBackgroundColor=none;edgeStyle=orthogonalEdgeStyle;fillColor=#f8cecc;strokeColor=#b85450;" parent="WIyWlLk6GJQsqaUBKTNV-1" source="WIyWlLk6GJQsqaUBKTNV-3" target="WIyWlLk6GJQsqaUBKTNV-6" edge="1">
          <mxGeometry relative="1" as="geometry" />
        </mxCell>
        <mxCell id="WIyWlLk6GJQsqaUBKTNV-3" value="Orginazation" style="rounded=1;whiteSpace=wrap;html=1;fontSize=12;glass=0;strokeWidth=1;shadow=0;" parent="WIyWlLk6GJQsqaUBKTNV-1" vertex="1">
          <mxGeometry x="160" y="80" width="120" height="40" as="geometry" />
        </mxCell>
        <mxCell id="9VWN9iOpsdZZTPqC3LOO-19" style="edgeStyle=orthogonalEdgeStyle;rounded=0;orthogonalLoop=1;jettySize=auto;html=1;exitX=0.5;exitY=1;exitDx=0;exitDy=0;entryX=0.5;entryY=0;entryDx=0;entryDy=0;fillColor=#dae8fc;strokeColor=#6c8ebf;" edge="1" parent="WIyWlLk6GJQsqaUBKTNV-1" source="WIyWlLk6GJQsqaUBKTNV-6" target="WIyWlLk6GJQsqaUBKTNV-10">
          <mxGeometry relative="1" as="geometry" />
        </mxCell>
        <mxCell id="WIyWlLk6GJQsqaUBKTNV-6" value="Managers" style="rhombus;whiteSpace=wrap;html=1;shadow=0;fontFamily=Helvetica;fontSize=12;align=center;strokeWidth=1;spacing=6;spacingTop=-4;" parent="WIyWlLk6GJQsqaUBKTNV-1" vertex="1">
          <mxGeometry x="170" y="170" width="100" height="80" as="geometry" />
        </mxCell>
        <mxCell id="WIyWlLk6GJQsqaUBKTNV-7" value="Edit Access" style="rounded=1;whiteSpace=wrap;html=1;fontSize=12;glass=0;strokeWidth=1;shadow=0;" parent="WIyWlLk6GJQsqaUBKTNV-1" vertex="1">
          <mxGeometry x="330" y="160" width="120" height="40" as="geometry" />
        </mxCell>
        <mxCell id="9VWN9iOpsdZZTPqC3LOO-22" style="edgeStyle=orthogonalEdgeStyle;rounded=0;orthogonalLoop=1;jettySize=auto;html=1;exitX=0.5;exitY=1;exitDx=0;exitDy=0;entryX=0.5;entryY=0;entryDx=0;entryDy=0;" edge="1" parent="WIyWlLk6GJQsqaUBKTNV-1" source="WIyWlLk6GJQsqaUBKTNV-10" target="9VWN9iOpsdZZTPqC3LOO-21">
          <mxGeometry relative="1" as="geometry" />
        </mxCell>
        <mxCell id="WIyWlLk6GJQsqaUBKTNV-10" value="Staff" style="rhombus;whiteSpace=wrap;html=1;shadow=0;fontFamily=Helvetica;fontSize=12;align=center;strokeWidth=1;spacing=6;spacingTop=-4;" parent="WIyWlLk6GJQsqaUBKTNV-1" vertex="1">
          <mxGeometry x="170" y="290" width="100" height="80" as="geometry" />
        </mxCell>
        <mxCell id="9VWN9iOpsdZZTPqC3LOO-0" value="AccountFlow" style="text;html=1;align=center;verticalAlign=middle;resizable=0;points=[];autosize=1;strokeColor=none;fillColor=none;" vertex="1" parent="WIyWlLk6GJQsqaUBKTNV-1">
          <mxGeometry x="55" y="15" width="90" height="30" as="geometry" />
        </mxCell>
        <mxCell id="9VWN9iOpsdZZTPqC3LOO-1" value="" style="endArrow=classic;html=1;rounded=0;" edge="1" parent="WIyWlLk6GJQsqaUBKTNV-1">
          <mxGeometry width="50" height="50" relative="1" as="geometry">
            <mxPoint x="280" y="100" as="sourcePoint" />
            <mxPoint x="520" y="100" as="targetPoint" />
          </mxGeometry>
        </mxCell>
        <mxCell id="9VWN9iOpsdZZTPqC3LOO-2" value="" style="endArrow=classic;html=1;rounded=0;" edge="1" parent="WIyWlLk6GJQsqaUBKTNV-1">
          <mxGeometry width="50" height="50" relative="1" as="geometry">
            <mxPoint x="520" y="100" as="sourcePoint" />
            <mxPoint x="520" y="250" as="targetPoint" />
            <Array as="points">
              <mxPoint x="520" y="210" />
            </Array>
          </mxGeometry>
        </mxCell>
        <mxCell id="9VWN9iOpsdZZTPqC3LOO-3" value="All Individuals" style="ellipse;whiteSpace=wrap;html=1;" vertex="1" parent="WIyWlLk6GJQsqaUBKTNV-1">
          <mxGeometry x="460" y="250" width="120" height="80" as="geometry" />
        </mxCell>
        <mxCell id="9VWN9iOpsdZZTPqC3LOO-4" value="" style="endArrow=classic;html=1;rounded=0;fillColor=#ffe6cc;strokeColor=#d79b00;" edge="1" parent="WIyWlLk6GJQsqaUBKTNV-1">
          <mxGeometry width="50" height="50" relative="1" as="geometry">
            <mxPoint x="520" y="330" as="sourcePoint" />
            <mxPoint x="520" y="360" as="targetPoint" />
          </mxGeometry>
        </mxCell>
        <mxCell id="9VWN9iOpsdZZTPqC3LOO-6" value="Groups" style="ellipse;whiteSpace=wrap;html=1;" vertex="1" parent="WIyWlLk6GJQsqaUBKTNV-1">
          <mxGeometry x="460" y="360" width="120" height="80" as="geometry" />
        </mxCell>
        <mxCell id="9VWN9iOpsdZZTPqC3LOO-7" value="" style="endArrow=classic;html=1;rounded=0;fillColor=#ffe6cc;strokeColor=#d79b00;" edge="1" parent="WIyWlLk6GJQsqaUBKTNV-1" target="9VWN9iOpsdZZTPqC3LOO-8">
          <mxGeometry width="50" height="50" relative="1" as="geometry">
            <mxPoint x="520" y="440" as="sourcePoint" />
            <mxPoint x="520" y="500" as="targetPoint" />
          </mxGeometry>
        </mxCell>
        <mxCell id="9VWN9iOpsdZZTPqC3LOO-8" value="Individuals&lt;br&gt;" style="ellipse;whiteSpace=wrap;html=1;" vertex="1" parent="WIyWlLk6GJQsqaUBKTNV-1">
          <mxGeometry x="460" y="460" width="120" height="80" as="geometry" />
        </mxCell>
        <mxCell id="9VWN9iOpsdZZTPqC3LOO-9" value="" style="endArrow=classic;html=1;rounded=0;entryX=0;entryY=0;entryDx=0;entryDy=0;fillColor=#f8cecc;strokeColor=#b85450;" edge="1" parent="WIyWlLk6GJQsqaUBKTNV-1" target="WIyWlLk6GJQsqaUBKTNV-7">
          <mxGeometry width="50" height="50" relative="1" as="geometry">
            <mxPoint x="280" y="120" as="sourcePoint" />
            <mxPoint x="330" y="70" as="targetPoint" />
          </mxGeometry>
        </mxCell>
        <mxCell id="9VWN9iOpsdZZTPqC3LOO-12" value="" style="endArrow=classic;html=1;rounded=0;entryX=0.5;entryY=0;entryDx=0;entryDy=0;fillColor=#f8cecc;strokeColor=#b85450;" edge="1" parent="WIyWlLk6GJQsqaUBKTNV-1" target="WIyWlLk6GJQsqaUBKTNV-6">
          <mxGeometry width="50" height="50" relative="1" as="geometry">
            <mxPoint x="330" y="160" as="sourcePoint" />
            <mxPoint x="380" y="110" as="targetPoint" />
          </mxGeometry>
        </mxCell>
        <mxCell id="9VWN9iOpsdZZTPqC3LOO-13" value="" style="endArrow=classic;html=1;rounded=0;entryX=0;entryY=0;entryDx=0;entryDy=0;fillColor=#f8cecc;strokeColor=#b85450;" edge="1" parent="WIyWlLk6GJQsqaUBKTNV-1" target="9VWN9iOpsdZZTPqC3LOO-3">
          <mxGeometry width="50" height="50" relative="1" as="geometry">
            <mxPoint x="450" y="200" as="sourcePoint" />
            <mxPoint x="500" y="150" as="targetPoint" />
          </mxGeometry>
        </mxCell>
        <mxCell id="9VWN9iOpsdZZTPqC3LOO-14" value="" style="endArrow=classic;html=1;rounded=0;entryX=0;entryY=1;entryDx=0;entryDy=0;fillColor=#dae8fc;strokeColor=#6c8ebf;" edge="1" parent="WIyWlLk6GJQsqaUBKTNV-1" target="WIyWlLk6GJQsqaUBKTNV-7">
          <mxGeometry width="50" height="50" relative="1" as="geometry">
            <mxPoint x="270" y="210" as="sourcePoint" />
            <mxPoint x="320" y="160" as="targetPoint" />
          </mxGeometry>
        </mxCell>
        <mxCell id="9VWN9iOpsdZZTPqC3LOO-15" value="" style="endArrow=classic;html=1;rounded=0;entryX=0;entryY=0;entryDx=0;entryDy=0;fillColor=#dae8fc;strokeColor=#6c8ebf;" edge="1" parent="WIyWlLk6GJQsqaUBKTNV-1" target="9VWN9iOpsdZZTPqC3LOO-6">
          <mxGeometry width="50" height="50" relative="1" as="geometry">
            <mxPoint x="370" y="200" as="sourcePoint" />
            <mxPoint x="420" y="150" as="targetPoint" />
          </mxGeometry>
        </mxCell>
        <mxCell id="9VWN9iOpsdZZTPqC3LOO-21" value="Access To Write and read documents based on access privileges" style="whiteSpace=wrap;html=1;aspect=fixed;" vertex="1" parent="WIyWlLk6GJQsqaUBKTNV-1">
          <mxGeometry x="190" y="430" width="160" height="160" as="geometry" />
        </mxCell>
        <mxCell id="9VWN9iOpsdZZTPqC3LOO-23" value="MAR&lt;br&gt;" style="text;html=1;align=center;verticalAlign=middle;resizable=0;points=[];autosize=1;strokeColor=none;fillColor=none;" vertex="1" parent="WIyWlLk6GJQsqaUBKTNV-1">
          <mxGeometry x="30" y="730" width="50" height="30" as="geometry" />
        </mxCell>
        <mxCell id="9VWN9iOpsdZZTPqC3LOO-25" style="edgeStyle=orthogonalEdgeStyle;rounded=0;orthogonalLoop=1;jettySize=auto;html=1;exitX=1;exitY=0.5;exitDx=0;exitDy=0;" edge="1" parent="WIyWlLk6GJQsqaUBKTNV-1" source="9VWN9iOpsdZZTPqC3LOO-24" target="9VWN9iOpsdZZTPqC3LOO-26">
          <mxGeometry relative="1" as="geometry">
            <mxPoint x="200" y="790" as="targetPoint" />
          </mxGeometry>
        </mxCell>
        <mxCell id="9VWN9iOpsdZZTPqC3LOO-24" value="Individual has med to be administrated" style="rounded=1;whiteSpace=wrap;html=1;" vertex="1" parent="WIyWlLk6GJQsqaUBKTNV-1">
          <mxGeometry x="40" y="760" width="120" height="60" as="geometry" />
        </mxCell>
        <mxCell id="9VWN9iOpsdZZTPqC3LOO-27" style="edgeStyle=orthogonalEdgeStyle;rounded=0;orthogonalLoop=1;jettySize=auto;html=1;exitX=1;exitY=0.5;exitDx=0;exitDy=0;" edge="1" parent="WIyWlLk6GJQsqaUBKTNV-1" source="9VWN9iOpsdZZTPqC3LOO-26" target="9VWN9iOpsdZZTPqC3LOO-28">
          <mxGeometry relative="1" as="geometry">
            <mxPoint x="360" y="790" as="targetPoint" />
          </mxGeometry>
        </mxCell>
        <mxCell id="9VWN9iOpsdZZTPqC3LOO-26" value="Push notification" style="rounded=1;whiteSpace=wrap;html=1;" vertex="1" parent="WIyWlLk6GJQsqaUBKTNV-1">
          <mxGeometry x="200" y="760" width="120" height="60" as="geometry" />
        </mxCell>
        <mxCell id="9VWN9iOpsdZZTPqC3LOO-29" style="edgeStyle=orthogonalEdgeStyle;rounded=0;orthogonalLoop=1;jettySize=auto;html=1;exitX=1;exitY=0.5;exitDx=0;exitDy=0;" edge="1" parent="WIyWlLk6GJQsqaUBKTNV-1" source="9VWN9iOpsdZZTPqC3LOO-28" target="9VWN9iOpsdZZTPqC3LOO-30">
          <mxGeometry relative="1" as="geometry">
            <mxPoint x="520" y="850" as="targetPoint" />
          </mxGeometry>
        </mxCell>
        <mxCell id="9VWN9iOpsdZZTPqC3LOO-28" value="Yes/No screen(link mock up)" style="rounded=1;whiteSpace=wrap;html=1;" vertex="1" parent="WIyWlLk6GJQsqaUBKTNV-1">
          <mxGeometry x="360" y="760" width="120" height="60" as="geometry" />
        </mxCell>
        <mxCell id="9VWN9iOpsdZZTPqC3LOO-33" style="edgeStyle=orthogonalEdgeStyle;rounded=0;orthogonalLoop=1;jettySize=auto;html=1;exitX=0.5;exitY=1;exitDx=0;exitDy=0;" edge="1" parent="WIyWlLk6GJQsqaUBKTNV-1" source="9VWN9iOpsdZZTPqC3LOO-30" target="9VWN9iOpsdZZTPqC3LOO-34">
          <mxGeometry relative="1" as="geometry">
            <mxPoint x="580" y="1100" as="targetPoint" />
          </mxGeometry>
        </mxCell>
        <mxCell id="9VWN9iOpsdZZTPqC3LOO-30" value="User answer, UUID and &lt;br&gt;time pushed to supabase" style="rhombus;whiteSpace=wrap;html=1;" vertex="1" parent="WIyWlLk6GJQsqaUBKTNV-1">
          <mxGeometry x="480" y="830" width="200" height="210" as="geometry" />
        </mxCell>
        <mxCell id="9VWN9iOpsdZZTPqC3LOO-35" style="edgeStyle=orthogonalEdgeStyle;rounded=0;orthogonalLoop=1;jettySize=auto;html=1;exitX=0.5;exitY=1;exitDx=0;exitDy=0;" edge="1" parent="WIyWlLk6GJQsqaUBKTNV-1" source="9VWN9iOpsdZZTPqC3LOO-34" target="9VWN9iOpsdZZTPqC3LOO-36">
          <mxGeometry relative="1" as="geometry">
            <mxPoint x="580" y="1210" as="targetPoint" />
          </mxGeometry>
        </mxCell>
        <mxCell id="9VWN9iOpsdZZTPqC3LOO-34" value="End Of Month" style="rounded=1;whiteSpace=wrap;html=1;" vertex="1" parent="WIyWlLk6GJQsqaUBKTNV-1">
          <mxGeometry x="520" y="1060" width="120" height="60" as="geometry" />
        </mxCell>
        <mxCell id="9VWN9iOpsdZZTPqC3LOO-36" value="Monthly info compiled in to documentation&lt;br&gt;Mar turned in to graph chart" style="rhombus;whiteSpace=wrap;html=1;" vertex="1" parent="WIyWlLk6GJQsqaUBKTNV-1">
          <mxGeometry x="455" y="1169" width="250" height="250" as="geometry" />
        </mxCell>
        <mxCell id="9VWN9iOpsdZZTPqC3LOO-38" value="Goals&lt;br&gt;" style="text;html=1;align=center;verticalAlign=middle;resizable=0;points=[];autosize=1;strokeColor=none;fillColor=none;" vertex="1" parent="WIyWlLk6GJQsqaUBKTNV-1">
          <mxGeometry x="35" y="1485" width="50" height="30" as="geometry" />
        </mxCell>
        <mxCell id="9VWN9iOpsdZZTPqC3LOO-48" style="edgeStyle=orthogonalEdgeStyle;rounded=0;orthogonalLoop=1;jettySize=auto;html=1;exitX=1;exitY=0.5;exitDx=0;exitDy=0;" edge="1" parent="WIyWlLk6GJQsqaUBKTNV-1" source="9VWN9iOpsdZZTPqC3LOO-49" target="9VWN9iOpsdZZTPqC3LOO-51">
          <mxGeometry relative="1" as="geometry">
            <mxPoint x="165" y="1540" as="targetPoint" />
          </mxGeometry>
        </mxCell>
        <mxCell id="9VWN9iOpsdZZTPqC3LOO-49" value="Goal is to be assessed" style="rounded=1;whiteSpace=wrap;html=1;" vertex="1" parent="WIyWlLk6GJQsqaUBKTNV-1">
          <mxGeometry x="5" y="1510" width="120" height="60" as="geometry" />
        </mxCell>
        <mxCell id="9VWN9iOpsdZZTPqC3LOO-50" style="edgeStyle=orthogonalEdgeStyle;rounded=0;orthogonalLoop=1;jettySize=auto;html=1;exitX=1;exitY=0.5;exitDx=0;exitDy=0;" edge="1" parent="WIyWlLk6GJQsqaUBKTNV-1" source="9VWN9iOpsdZZTPqC3LOO-51" target="9VWN9iOpsdZZTPqC3LOO-52">
          <mxGeometry relative="1" as="geometry">
            <mxPoint x="325" y="1540" as="targetPoint" />
          </mxGeometry>
        </mxCell>
        <mxCell id="9VWN9iOpsdZZTPqC3LOO-51" value="Push notification/user initiation" style="rounded=1;whiteSpace=wrap;html=1;" vertex="1" parent="WIyWlLk6GJQsqaUBKTNV-1">
          <mxGeometry x="165" y="1510" width="120" height="60" as="geometry" />
        </mxCell>
        <mxCell id="9VWN9iOpsdZZTPqC3LOO-60" style="edgeStyle=orthogonalEdgeStyle;rounded=0;orthogonalLoop=1;jettySize=auto;html=1;exitX=1;exitY=0.5;exitDx=0;exitDy=0;entryX=0.5;entryY=0;entryDx=0;entryDy=0;" edge="1" parent="WIyWlLk6GJQsqaUBKTNV-1" source="9VWN9iOpsdZZTPqC3LOO-52" target="9VWN9iOpsdZZTPqC3LOO-56">
          <mxGeometry relative="1" as="geometry" />
        </mxCell>
        <mxCell id="9VWN9iOpsdZZTPqC3LOO-52" value="Yes/No screen(link mock up)" style="rounded=1;whiteSpace=wrap;html=1;" vertex="1" parent="WIyWlLk6GJQsqaUBKTNV-1">
          <mxGeometry x="325" y="1510" width="120" height="60" as="geometry" />
        </mxCell>
        <mxCell id="9VWN9iOpsdZZTPqC3LOO-55" style="edgeStyle=orthogonalEdgeStyle;rounded=0;orthogonalLoop=1;jettySize=auto;html=1;exitX=0.5;exitY=1;exitDx=0;exitDy=0;" edge="1" parent="WIyWlLk6GJQsqaUBKTNV-1" source="9VWN9iOpsdZZTPqC3LOO-56" target="9VWN9iOpsdZZTPqC3LOO-58">
          <mxGeometry relative="1" as="geometry">
            <mxPoint x="585" y="1840" as="targetPoint" />
          </mxGeometry>
        </mxCell>
        <mxCell id="9VWN9iOpsdZZTPqC3LOO-56" value="User answer, UUID and &lt;br&gt;time pushed to supabase" style="rhombus;whiteSpace=wrap;html=1;" vertex="1" parent="WIyWlLk6GJQsqaUBKTNV-1">
          <mxGeometry x="485" y="1570" width="200" height="210" as="geometry" />
        </mxCell>
        <mxCell id="9VWN9iOpsdZZTPqC3LOO-57" style="edgeStyle=orthogonalEdgeStyle;rounded=0;orthogonalLoop=1;jettySize=auto;html=1;exitX=0.5;exitY=1;exitDx=0;exitDy=0;" edge="1" parent="WIyWlLk6GJQsqaUBKTNV-1" source="9VWN9iOpsdZZTPqC3LOO-58" target="9VWN9iOpsdZZTPqC3LOO-59">
          <mxGeometry relative="1" as="geometry">
            <mxPoint x="585" y="1950" as="targetPoint" />
          </mxGeometry>
        </mxCell>
        <mxCell id="9VWN9iOpsdZZTPqC3LOO-58" value="End Of Month" style="rounded=1;whiteSpace=wrap;html=1;" vertex="1" parent="WIyWlLk6GJQsqaUBKTNV-1">
          <mxGeometry x="525" y="1800" width="120" height="60" as="geometry" />
        </mxCell>
        <mxCell id="9VWN9iOpsdZZTPqC3LOO-59" value="Information is compiled in to&lt;br&gt;document" style="rhombus;whiteSpace=wrap;html=1;" vertex="1" parent="WIyWlLk6GJQsqaUBKTNV-1">
          <mxGeometry x="460" y="1909" width="250" height="250" as="geometry" />
        </mxCell>
        <mxCell id="9VWN9iOpsdZZTPqC3LOO-61" value="DailyLogs" style="text;html=1;align=center;verticalAlign=middle;resizable=0;points=[];autosize=1;strokeColor=none;fillColor=none;" vertex="1" parent="WIyWlLk6GJQsqaUBKTNV-1">
          <mxGeometry x="15" y="2180" width="80" height="30" as="geometry" />
        </mxCell>
        <mxCell id="9VWN9iOpsdZZTPqC3LOO-62" style="edgeStyle=orthogonalEdgeStyle;rounded=0;orthogonalLoop=1;jettySize=auto;html=1;exitX=1;exitY=0.5;exitDx=0;exitDy=0;" edge="1" parent="WIyWlLk6GJQsqaUBKTNV-1" source="9VWN9iOpsdZZTPqC3LOO-63" target="9VWN9iOpsdZZTPqC3LOO-65">
          <mxGeometry relative="1" as="geometry">
            <mxPoint x="160" y="2235" as="targetPoint" />
          </mxGeometry>
        </mxCell>
        <mxCell id="9VWN9iOpsdZZTPqC3LOO-63" value="End of shift" style="rounded=1;whiteSpace=wrap;html=1;" vertex="1" parent="WIyWlLk6GJQsqaUBKTNV-1">
          <mxGeometry y="2205" width="120" height="60" as="geometry" />
        </mxCell>
        <mxCell id="9VWN9iOpsdZZTPqC3LOO-64" style="edgeStyle=orthogonalEdgeStyle;rounded=0;orthogonalLoop=1;jettySize=auto;html=1;exitX=1;exitY=0.5;exitDx=0;exitDy=0;" edge="1" parent="WIyWlLk6GJQsqaUBKTNV-1" source="9VWN9iOpsdZZTPqC3LOO-65">
          <mxGeometry relative="1" as="geometry">
            <mxPoint x="450" y="2235" as="targetPoint" />
          </mxGeometry>
        </mxCell>
        <mxCell id="9VWN9iOpsdZZTPqC3LOO-65" value="User documents times and activities" style="rounded=1;whiteSpace=wrap;html=1;" vertex="1" parent="WIyWlLk6GJQsqaUBKTNV-1">
          <mxGeometry x="160" y="2205" width="120" height="60" as="geometry" />
        </mxCell>
        <mxCell id="9VWN9iOpsdZZTPqC3LOO-66" style="edgeStyle=orthogonalEdgeStyle;rounded=0;orthogonalLoop=1;jettySize=auto;html=1;exitX=1;exitY=0.5;exitDx=0;exitDy=0;entryX=0.5;entryY=0;entryDx=0;entryDy=0;" edge="1" parent="WIyWlLk6GJQsqaUBKTNV-1" target="9VWN9iOpsdZZTPqC3LOO-69">
          <mxGeometry relative="1" as="geometry">
            <mxPoint x="440" y="2235" as="sourcePoint" />
          </mxGeometry>
        </mxCell>
        <mxCell id="9VWN9iOpsdZZTPqC3LOO-68" style="edgeStyle=orthogonalEdgeStyle;rounded=0;orthogonalLoop=1;jettySize=auto;html=1;exitX=0.5;exitY=1;exitDx=0;exitDy=0;" edge="1" parent="WIyWlLk6GJQsqaUBKTNV-1" source="9VWN9iOpsdZZTPqC3LOO-69" target="9VWN9iOpsdZZTPqC3LOO-71">
          <mxGeometry relative="1" as="geometry">
            <mxPoint x="580" y="2535" as="targetPoint" />
          </mxGeometry>
        </mxCell>
        <mxCell id="9VWN9iOpsdZZTPqC3LOO-69" value="User answer, UUID and &lt;br&gt;time pushed to supabase" style="rhombus;whiteSpace=wrap;html=1;" vertex="1" parent="WIyWlLk6GJQsqaUBKTNV-1">
          <mxGeometry x="480" y="2265" width="200" height="210" as="geometry" />
        </mxCell>
        <mxCell id="9VWN9iOpsdZZTPqC3LOO-70" style="edgeStyle=orthogonalEdgeStyle;rounded=0;orthogonalLoop=1;jettySize=auto;html=1;exitX=0.5;exitY=1;exitDx=0;exitDy=0;" edge="1" parent="WIyWlLk6GJQsqaUBKTNV-1" source="9VWN9iOpsdZZTPqC3LOO-71" target="9VWN9iOpsdZZTPqC3LOO-72">
          <mxGeometry relative="1" as="geometry">
            <mxPoint x="580" y="2645" as="targetPoint" />
          </mxGeometry>
        </mxCell>
        <mxCell id="9VWN9iOpsdZZTPqC3LOO-71" value="End Of Month" style="rounded=1;whiteSpace=wrap;html=1;" vertex="1" parent="WIyWlLk6GJQsqaUBKTNV-1">
          <mxGeometry x="520" y="2495" width="120" height="60" as="geometry" />
        </mxCell>
        <mxCell id="9VWN9iOpsdZZTPqC3LOO-72" value="Information is compiled in to&lt;br&gt;document" style="rhombus;whiteSpace=wrap;html=1;" vertex="1" parent="WIyWlLk6GJQsqaUBKTNV-1">
          <mxGeometry x="455" y="2604" width="250" height="250" as="geometry" />
        </mxCell>
        <mxCell id="9VWN9iOpsdZZTPqC3LOO-74" style="edgeStyle=orthogonalEdgeStyle;rounded=0;orthogonalLoop=1;jettySize=auto;html=1;exitX=1;exitY=0.5;exitDx=0;exitDy=0;" edge="1" parent="WIyWlLk6GJQsqaUBKTNV-1" source="9VWN9iOpsdZZTPqC3LOO-73" target="9VWN9iOpsdZZTPqC3LOO-75">
          <mxGeometry relative="1" as="geometry">
            <mxPoint x="170" y="2308.3846153846152" as="targetPoint" />
          </mxGeometry>
        </mxCell>
        <mxCell id="9VWN9iOpsdZZTPqC3LOO-73" value="Beginning of shift" style="rounded=1;whiteSpace=wrap;html=1;" vertex="1" parent="WIyWlLk6GJQsqaUBKTNV-1">
          <mxGeometry y="2278" width="120" height="60" as="geometry" />
        </mxCell>
        <mxCell id="9VWN9iOpsdZZTPqC3LOO-76" style="edgeStyle=orthogonalEdgeStyle;rounded=0;orthogonalLoop=1;jettySize=auto;html=1;exitX=0.5;exitY=1;exitDx=0;exitDy=0;" edge="1" parent="WIyWlLk6GJQsqaUBKTNV-1" source="9VWN9iOpsdZZTPqC3LOO-75" target="9VWN9iOpsdZZTPqC3LOO-77">
          <mxGeometry relative="1" as="geometry">
            <mxPoint x="220" y="2390" as="targetPoint" />
          </mxGeometry>
        </mxCell>
        <mxCell id="9VWN9iOpsdZZTPqC3LOO-75" value="User has unread daily logs" style="rounded=1;whiteSpace=wrap;html=1;" vertex="1" parent="WIyWlLk6GJQsqaUBKTNV-1">
          <mxGeometry x="160" y="2278.004615384615" width="120" height="60" as="geometry" />
        </mxCell>
        <mxCell id="9VWN9iOpsdZZTPqC3LOO-77" value="User reads and approves each log that is unread" style="rounded=1;whiteSpace=wrap;html=1;" vertex="1" parent="WIyWlLk6GJQsqaUBKTNV-1">
          <mxGeometry x="160" y="2360" width="120" height="60" as="geometry" />
        </mxCell>
      </root>
    </mxGraphModel>
  </diagram>
</mxfile>
